# AST/ASF file generated using VICON BodyLanguage
# -----------------------------------------------
:version 1.10
:name VICON
:units
  mass 1.0
  length 0.45
  angle deg
:documentation
   .ast/.asf automatically generated from VICON data using
   VICON BodyBuilder and BodyLanguage model FoxedUp or BRILLIANT.MOD
:root
   order TX TY TZ RX RY RZ
   axis XYZ
   position 0 0 0  
   orientation 0 0 0 
:bonedata
  begin
     id 1 
     name lhipjoint
     direction 0.63403 -0.759788 0.143974 
     length 2.51904 
     axis 0 0 0  XYZ
  end
  begin
     id 2 
     name lfemur
     direction 0.34202 -0.939693 0  
     length 7.42313  
     axis 0 0 20  XYZ
    dof rx ry rz
    limits (-160.0 20.0)
           (-70.0 70.0)
           (-60.0 70.0)
  end
  begin
     id 3 
     name ltibia
     direction 0.34202 -0.939693 0   
     length 8.10141   
     axis 0 0 20   XYZ
    dof rx
    limits (-10.0 170.0)
  end
  begin
     id 4 
     name lfoot
     direction 0.0927455 -0.254816 0.962532   
     length 2.14078   
     axis -90 7.62852e-016 20   XYZ
    dof rx rz
    limits (-45.0 90.0)
           (-70.0 20.0)
  end
  begin
     id 5 
     name ltoes
     direction 1.53556e-011 -4.21949e-011 1   
     length 1.07182   
     axis -90 7.62852e-016 20   XYZ
    dof rx
    limits (-90.0 20.0)
  end
  begin
     id 6 
     name rhipjoint
     direction -0.659892 -0.738223 0.139888   
     length 2.59263  
     axis 0 0 0  XYZ 
  end
  begin
     id 7 
     name rfemur
     direction -0.34202 -0.939693 0   
     length 7.58575   
     axis 0 0 -20   XYZ
    dof rx ry rz
    limits (-160.0 20.0)
           (-70.0 70.0)
           (-70.0 60.0)
  end
  begin
     id 8 
     name rtibia
     direction -0.34202 -0.939693 0   
     length 8.19358   
     axis 0 0 -20   XYZ
    dof rx
    limits (-10.0 170.0)
 end
 begin
     id 9 
     name rfoot
     direction -0.0856543 -0.235333 0.968133   
     length 2.13415  
     axis -90 -7.62852e-016 -20   XYZ
    dof rx rz
    limits (-45.0 90.0)
           (-20.0 70.0)
  end
  begin
     id 10 
     name rtoes
     direction -1.53551e-011 -4.21811e-011 1   
     length 1.07055   
     axis -90 -7.62852e-016 -20   XYZ
    dof rx
    limits (-90.0 20.0)
  end
  begin
     id 11 
     name lowerback
     direction 0.025219 0.998394 -0.0507326   
     length 1.91844   
     axis 0 0 0   XYZ
    dof rx ry rz
    limits (-20.0 45.0)
           (-30.0 30.0)
           (-30.0 30.0)
  end
  begin
     id 12 
     name upperback
     direction 0.0213103 0.99967 -0.0143101   
     length 1.92246   
     axis 0 0 0   XYZ
    dof rx ry rz
    limits (-20.0 45.0)
           (-30.0 30.0)
           (-30.0 30.0)
  end
  begin
     id 13 
     name thorax
     direction 0.00920974 0.99991 0.00971518   
     length 1.92239   
     axis 0 0 0   XYZ
    dof rx ry rz
    limits (-20.0 45.0)
           (-30.0 30.0)
           (-30.0 30.0)
  end
  begin
     id 14 
     name lowerneck
     direction 0.0598257 0.997249 0.0437612   
     length 3.13679   
     axis 0 0 0   XYZ
    dof rx ry rz
    limits (-20.0 45.0)
           (-30.0 30.0)
           (-30.0 30.0)
  end
  begin
     id 15 
     name upperneck
     direction -0.035342 0.999338 0.00863891   
     length 3.16283   
     axis 0 0 0   XYZ
    dof rx ry rz
    limits (-20.0 45.0)
           (-30.0 30.0)
           (-30.0 30.0)
  end
  begin
     id 16
     name head
     direction 0.37144 0.811566 0.450991  
     length 1.2838  
     axis 0 0 0   XYZ
    dof rx ry rz
    limits (-20.0 45.0)
           (-30.0 30.0)
           (-30.0 30.0)
  end
  begin
     id 17 
     name lclavicle
     direction 0.961094 0.274654 -0.0293862  
     length 3.63466  
     axis 0 0 0   XYZ
    dof ry rz
    limits (-20.0 10.0)
           (0.0 20.0)
  end
  begin
     id 18 
     name lhumerus
     direction 1 -4.48963e-011 1.10303e-027   
     length 5.12842   
     axis 180 -30 -90   XYZ
    dof rx ry rz
    limits (-60.0 90.0)
           (-90.0 90.0)
           (-90.0 90.0)
  end
  begin
     id 19
     name lradius
     direction 1 -4.48968e-011 4.13199e-027   
     length 3.47396   
     axis 180 -30 -90   XYZ
    dof rx
    limits (-10.0 170.0)
  end
  begin
     id 20
     name lwrist
     direction 1 -4.48948e-011 9.12708e-027   
     length 1.73698   
     axis -6.84618e-015 90 90   XYZ
    dof ry
    limits (-180.0 0.0)
 end
  begin
     id 21 
     name lhand
     direction 1 -4.49057e-011 1.82749e-026   
     length 0.728607   
     axis -1.16502e-014 90 90   XYZ
    dof rx rz
    limits (-90.0 90.0)
           (-45.0 45.0)
  end
  begin
     id 22 
     name lfingers
     direction 1 -4.48912e-011 3.64949e-026   
     length 0.587422   
     axis -2.33008e-014 90 90   XYZ
    dof rx
    limits (0.0 90.0)
  end
  begin
     id 23
     name lthumb
     direction 0.707107 -6.34995e-011 0.707107   
     length 0.843424   
     axis -90 45 5.69224e-014   XYZ
    dof rx rz
    limits (-45.0 45.0)
           (-45.0 45.0)
  end
  begin
     id 24 
     name rclavicle
     direction -0.90514 0.421881 -0.0523369   
     length 3.57139  
     axis 0 0 0   XYZ 
    dof ry rz
    limits (-10.0 20.0)
           (-20.0 0.0)
  end
  begin
     id 25 
     name rhumerus
     direction -1 -4.48954e-011 -1.76662e-027  
     length 5.48477   
     axis 180 30 90   XYZ
    dof rx ry rz
    limits (-90.0 60.0)
           (-90.0 90.0)
           (-90.0 90.0)
  end
  begin
     id 26 
     name rradius
     direction -1 -4.48982e-011 1.26841e-027   
     length 3.47856   
     axis 180 30 90   XYZ
    dof rx
    limits (-10.0 170.0)
  end
  begin
     id 27 
     name rwrist
     direction -1 -4.49037e-011 9.13554e-027   
     length 1.73928   
     axis -6.84618e-015 -90 -90   XYZ
    dof ry
    limits (-180.0 0.0)
  end
  begin
     id 28
     name rhand
     direction -1 -4.48871e-011 1.82397e-026   
     length 0.709974   
     axis -1.16502e-014 -90 -90   XYZ
    dof rx rz
    limits (-90.0 90.0)
           (-45.0 45.0)
  end
  begin
     id 29
     name rfingers
     direction -1 -4.48994e-011 3.65258e-026   
     length 0.572399   
     axis -2.33008e-014 -90 -90   XYZ
    dof rx
    limits (0.0 90.0)
  end
  begin
     id 30
     name rthumb
     direction -0.707107 -6.34861e-011 0.707107   
     length 0.821855   
     axis -90 -45 -5.69224e-014   XYZ
    dof rx rz
    limits (-45.0 45.0)
           (-45.0 45.0)
  end
:hierarchy
  begin
    root lhipjoint rhipjoint lowerback
    lhipjoint lfemur
    lfemur ltibia
    ltibia lfoot
    lfoot ltoes
    rhipjoint rfemur
    rfemur rtibia
    rtibia rfoot
    rfoot rtoes
    lowerback upperback
    upperback thorax
    thorax lowerneck lclavicle rclavicle
    lowerneck upperneck
    upperneck head
    lclavicle lhumerus
    lhumerus lradius
    lradius lwrist
    lwrist lhand lthumb
    lhand lfingers
    rclavicle rhumerus
    rhumerus rradius
    rradius rwrist
    rwrist rhand rthumb
    rhand rfingers
  end

#!OML:ASF F:\VICON\USERDATA\INSTALL\Justin1\Justin1.ASF
:FULLY-SPECIFIED
:DEGREES
2364
root 0.287575 18.1782 -3.84754 2.40379 2.76188 -3.83568
lowerback 0.130304 -0.638894 2.50871
upperback -2.97579 -0.720928 3.14756
thorax -3.12468 -0.379323 1.85438
lowerneck -15.0108 -0.756882 -2.32421
upperneck 23.5255 0.965634 -5.49668
head 10.0038 -0.402254 -1.41457
rclavicle -1.78906e-015 -3.97569e-015
rhumerus 40.1569 56.8338 -47.0649
rradius 69.5022
rwrist 11.157
rhand -29.097 48.2884
rfingers 7.12502
rthumb -2.44539 18.3226
lclavicle -1.78906e-015 -3.97569e-015
lhumerus 37.7502 -43.1439 64.5167
lradius 28.206
lwrist -28.3969
lhand -14.4756 20.5194
lfingers 7.12502
lthumb 11.6704 50.1743
rfemur -14.3475 8.22615 27.5785
rtibia 33.5776
rfoot -17.9676 -13.3825
rtoes 27.9955
lfemur -13.1165 -9.15104 -19.0369
ltibia 30.7481
lfoot -17.548 8.68925
ltoes 5.06164
2365
root 0.287516 18.1771 -3.84872 2.43237 2.72723 -3.8696
lowerback -0.354361 -0.529642 2.09364
upperback -2.67272 -0.607849 3.49205
thorax -2.53168 -0.306411 2.42911
lowerneck -15.198 -0.904553 -2.69125
upperneck 23.3407 0.893399 -5.65155
head 9.97597 -0.483941 -1.41534
rclavicle 4.17448e-015 4.77083e-015
rhumerus 40.9156 56.5736 -45.7259
rradius 69.5206
rwrist 11.5081
rhand -29.8385 47.9
rfingers 7.12502
rthumb -3.1615 17.9437
lclavicle 4.17448e-015 4.77083e-015
lhumerus 38.2838 -42.9126 64.8127
lradius 28.1761
lwrist -28.4608
lhand -14.392 20.6283
lfingers 7.12502
lthumb 11.7511 50.2787
rfemur -14.3723 8.26595 27.6152
rtibia 33.5558
rfoot -17.916 -13.4447
rtoes 27.7699
lfemur -13.1737 -9.13095 -18.9937
ltibia 30.788
lfoot -17.553 8.69119
ltoes 5.25634
2366
root 0.287693 18.1782 -3.84898 2.42444 2.72616 -3.94906
lowerback -0.296486 -0.554157 2.25208
upperback -2.70958 -0.635124 3.46385
thorax -2.60381 -0.324064 2.31288
lowerneck -15.0815 -0.877544 -2.65576
upperneck 23.2788 0.903518 -5.61829
head 9.93105 -0.468921 -1.40618
rclavicle 1.86361e-015 1.66979e-014
rhumerus 40.9398 56.6392 -45.8083
rradius 69.502
rwrist 11.3908
rhand -29.8204 47.9101
rfingers 7.12502
rthumb -3.144 17.9535
lclavicle 1.86361e-015 1.66979e-014
lhumerus 38.1632 -42.8993 64.7812
lradius 28.2014
lwrist -28.4935
lhand -14.3658 20.6128
lfingers 7.12502
lthumb 11.7764 50.2617
rfemur -14.3712 8.2419 27.7015
rtibia 33.5545
rfoot -17.9583 -13.4497
rtoes 27.6487
lfemur -13.1774 -9.11752 -18.9049
ltibia 30.8055
lfoot -17.5668 8.71731
ltoes 5.02871
2367
root 0.287176 18.1803 -3.84884 2.42268 2.72717 -3.94835
lowerback -0.168738 -0.59035 2.37116
upperback -2.7799 -0.675017 3.37298
thorax -2.74995 -0.348335 2.15581
lowerneck -15.0284 -0.830652 -2.56408
upperneck 23.2813 0.92861 -5.56339
head 9.92104 -0.442236 -1.3986
rclavicle 1.11816e-015 9.54166e-015
rhumerus 40.8314 56.7205 -46.0845
rradius 69.4873
rwrist 11.4057
rhand -29.8139 47.8768
rfingers 7.12502
rthumb -3.13774 17.9201
lclavicle 1.11816e-015 9.54166e-015
lhumerus 38.0962 -43.0057 64.5375
lradius 28.2906
lwrist -28.3955
lhand -14.3144 20.7604
lfingers 7.12502
lthumb 11.8259 50.4065
rfemur -14.3628 8.20283 27.7129
rtibia 33.5587
rfoot -17.9406 -13.4579
rtoes 27.272
lfemur -13.1783 -9.11288 -18.9032
ltibia 30.815
lfoot -17.6072 8.75037
ltoes 4.77267
2368
root 0.287367 18.1809 -3.84824 2.43251 2.6838 -3.94956
lowerback 0.018135 -0.534116 2.47406
upperback -2.92286 -0.584943 3.30618
thorax -3.00678 -0.307698 2.03156
lowerneck -14.9 -0.86278 -2.53488
upperneck 23.3401 0.8693 -5.5494
head 9.91594 -0.465044 -1.40607
rclavicle -1.16041e-014 4.77083e-014
rhumerus 40.2729 56.7175 -46.5955
rradius 69.4509
rwrist 11.4651
rhand -29.666 48.2444
rfingers 7.12502
rthumb -2.99494 18.2857
lclavicle -1.16041e-014 4.77083e-014
lhumerus 37.8653 -43.2185 64.6807
lradius 28.3693
lwrist -28.4068
lhand -14.2723 20.7485
lfingers 7.12502
lthumb 11.8665 50.3922
rfemur -14.361 8.17602 27.723
rtibia 33.5638
rfoot -17.8332 -13.5112
rtoes 26.5961
lfemur -13.1834 -9.09903 -18.9056
ltibia 30.8245
lfoot -17.6176 8.76187
ltoes 4.78139
2369
root 0.28648 18.1788 -3.85024 2.43563 2.64082 -3.94937
lowerback 0.339924 -0.485746 2.64881
upperback -3.12893 -0.495829 3.18462
thorax -3.40626 -0.271626 1.81249
lowerneck -14.7131 -0.892366 -2.47719
upperneck 23.4213 0.794038 -5.49445
head 9.90671 -0.487757 -1.40579
rclavicle 9.93923e-017 -6.36111e-015
rhumerus 39.4558 56.6825 -47.4806
rradius 69.4535
rwrist 11.164
rhand -28.7016 48.7438
rfingers 7.12502
rthumb -2.0635 18.774
lclavicle 9.93923e-017 -6.36111e-015
lhumerus 37.6302 -43.5678 64.656
lradius 28.4951
lwrist -28.2913
lhand -14.2134 20.8496
lfingers 7.12502
lthumb 11.9233 50.49
rfemur -14.3878 8.26013 27.714
rtibia 33.5728
rfoot -17.8389 -13.51
rtoes 26.8853
lfemur -13.1912 -9.1051 -18.9049
ltibia 30.8248
lfoot -17.5846 8.7893
ltoes 4.75043
2370
root 0.285922 18.1786 -3.85284 2.46368 2.58869 -3.98449
lowerback 0.338586 -0.564811 2.75933
upperback -3.10456 -0.601655 3.13601
thorax -3.38077 -0.328165 1.70355
lowerneck -14.8144 -0.781417 -2.32735
upperneck 23.407 0.92182 -5.52072
head 9.923 -0.419707 -1.42454
rclavicle 8.44835e-015 7.15625e-015
rhumerus 39.8072 56.8244 -47.4261
rradius 69.431
rwrist 11.3727
rhand -29.0766 48.5628
rfingers 7.12502
rthumb -2.42571 18.5968
lclavicle 8.44835e-015 7.15625e-015
lhumerus 37.6069 -43.3969 64.381
lradius 28.552
lwrist -28.2027
lhand -14.1807 20.8945
lfingers 7.12502
lthumb 11.9549 50.5331
rfemur -14.4516 8.35413 27.7333
rtibia 33.5682
rfoot -17.8873 -13.432
rtoes 27.5895
lfemur -13.2343 -9.10909 -18.8596
ltibia 30.8322
lfoot -17.5862 8.81761
ltoes 5.14681
2371
root 0.285241 18.1807 -3.85411 2.49518 2.549 -3.9788
lowerback -0.179136 -0.547399 2.4349
upperback -2.73358 -0.619452 3.36805
thorax -2.69814 -0.32198 2.11299
lowerneck -15.1087 -0.812769 -2.55013
upperneck 23.1357 0.95509 -5.60079
head 9.8852 -0.430444 -1.40893
rclavicle -4.64659e-015 -2.22639e-014
rhumerus 41.0278 56.6748 -45.9679
rradius 69.486
rwrist 11.7294
rhand -29.996 47.7273
rfingers 7.12502
rthumb -3.31362 17.7733
lclavicle -4.64659e-015 -2.22639e-014
lhumerus 38.2141 -42.976 64.3148
lradius 28.5068
lwrist -28.2293
lhand -14.126 20.9785
lfingers 7.12502
lthumb 12.0076 50.6141
rfemur -14.5106 8.40398 27.7165
rtibia 33.5709
rfoot -17.8668 -13.4046
rtoes 27.8876
lfemur -13.2625 -9.12315 -18.8598
ltibia 30.8174
lfoot -17.5584 8.84853
ltoes 5.37034
2372
root 0.284776 18.1813 -3.85403 2.50822 2.5489 -3.9753
lowerback -0.133283 -0.559537 2.52647
upperback -2.76341 -0.632543 3.296
thorax -2.75637 -0.331853 1.98859
lowerneck -15.0348 -0.79195 -2.42345
upperneck 23.0507 0.952056 -5.63897
head 9.84039 -0.421798 -1.44194
rclavicle 1.18277e-014 0
rhumerus 40.8782 56.6258 -46.2766
rradius 69.416
rwrist 11.579
rhand -29.6636 48.4381
rfingers 7.12502
rthumb -2.99259 18.4793
lclavicle 1.18277e-014 0
lhumerus 38.0936 -42.9743 64.3302
lradius 28.5428
lwrist -28.2952
lhand -14.12 21.0241
lfingers 7.12502
lthumb 12.0134 50.6593
rfemur -14.5377 8.38694 27.7145
rtibia 33.5822
rfoot -17.8455 -13.4507
rtoes 27.4918
lfemur -13.2601 -9.07805 -18.8617
ltibia 30.7837
lfoot -17.5107 8.83817
ltoes 5.01517
2373
root 0.284281 18.1817 -3.85336 2.49565 2.57593 -3.86599
lowerback 0.235732 -0.651149 2.74907
upperback -2.98259 -0.730491 3.03233
thorax -3.19593 -0.392525 1.60291
lowerneck -14.843 -0.688304 -2.14452
upperneck 23.0858 1.00476 -5.58775
head 9.81534 -0.365347 -1.46312
rclavicle 6.03808e-015 -4.37326e-014
rhumerus 40.5309 56.9823 -46.9756
rradius 69.4608
rwrist 11.7188
rhand -30.2656 47.4879
rfingers 7.12502
rthumb -3.574 17.5382
lclavicle 6.03808e-015 -4.37326e-014
lhumerus 37.4727 -42.9819 64.4057
lradius 28.615
lwrist -28.4187
lhand -14.2246 20.9673
lfingers 7.12502
lthumb 11.9125 50.6084
rfemur -14.5293 8.34109 27.601
rtibia 33.6041
rfoot -17.8332 -13.4584
rtoes 27.3078
lfemur -13.2176 -9.07587 -18.9803
ltibia 30.7334
lfoot -17.5141 8.78137
ltoes 5.08895
